<svg width="11" height="6" viewBox="0 0 11 6" fill="none" xmlns="http://www.w3.org/2000/svg">
<path d="M10.7823 1.18894L5.90633 5.84792C5.84828 5.90322 5.7854 5.94248 5.71768 5.96571C5.64996 5.98893 5.5774 6.00036 5.5 5.99999C5.4226 5.99999 5.35004 5.98838 5.28232 5.96515C5.2146 5.94193 5.15171 5.90285 5.09367 5.84792L0.203166 1.18894C0.0677218 1.05991 -2.22989e-07 0.898616 -2.31449e-07 0.705068C-2.39909e-07 0.51152 0.0725591 0.345622 0.217678 0.207374C0.362797 0.0691247 0.532102 4.53578e-07 0.725593 4.4512e-07C0.919085 4.36663e-07 1.08839 0.0691247 1.23351 0.207374L5.5 4.27188L9.76649 0.207373C9.90193 0.0783411 10.0689 0.0138245 10.2674 0.0138245C10.466 0.0138245 10.6376 0.0829492 10.7823 0.221198C10.9274 0.359446 11 0.520736 11 0.705068C11 0.8894 10.9274 1.05069 10.7823 1.18894Z" fill="#1F1F1F"/>
</svg>
